# xmcd
#
# Track frame offsets: 
#        150
#        34399
#        67839
#        111976
#        128800
#        146640
#        170970
#        192989
#        226414
#        261257
#        309880
#        328641
#        346638
#
# Disc length: 4839 seconds
#
# Revision: 0
# Processed by: cddbd v1.5.1PL2 Copyright (c) Steve Scherf et al.
# Submitted via: ExactAudioCopy v0.95a3
#
DISCID=be12e50d
DTITLE=Ten Years After - Zounds Best:Ten Years After "Love Like A Man"
DYEAR=2003
DGENRE=Blues
TTITLE0=Love Like A Man
TTITLE1=Good Morning Little School Girl
TTITLE2=I'm Going Home
TTITLE3=I'm Coming On
TTITLE4=Choo Choo Mama
TTITLE5=I Woke Up This Morning
TTITLE6=My Baby Left Me
TTITLE7=Woodchoppers Ball
TTITLE8=Slow Blues In "C"
TTITLE9=Help Me
TTITLE10=Me And My Baby
TTITLE11=Sweet Little Sixteen
TTITLE12=Speed Kills 1969
EXTD=
EXTT0=
EXTT1=
EXTT2=
EXTT3=
EXTT4=
EXTT5=
EXTT6=
EXTT7=
EXTT8=
EXTT9=
EXTT10=
EXTT11=
EXTT12=
PLAYORDER=
